<svg width="256" height="256" viewBox="0 0 256 256" xmlns="http://www.w3.org/2000/svg" role="img" aria-label="Pasuta icon idea clipboard code">
  <defs>
    <linearGradient id="bg" x1="22" y1="20" x2="234" y2="236" gradientUnits="userSpaceOnUse">
      <stop offset="0" stop-color="#203246"/>
      <stop offset="1" stop-color="#0B141D"/>
    </linearGradient>
    <linearGradient id="paper" x1="72" y1="54" x2="188" y2="206" gradientUnits="userSpaceOnUse">
      <stop offset="0" stop-color="#ECF4FB"/>
      <stop offset="1" stop-color="#D8E7F5"/>
    </linearGradient>
  </defs>
  <rect x="16" y="16" width="224" height="224" rx="48" fill="url(#bg)"/>
  <rect x="86" y="34" width="84" height="28" rx="14" fill="#BFD6EC"/>
  <rect x="60" y="52" width="136" height="164" rx="24" fill="url(#paper)" stroke="#91B3D2" stroke-width="6"/>
  <rect x="76" y="84" width="18" height="12" rx="6" fill="#F5A623"/>
  <rect x="102" y="84" width="78" height="12" rx="6" fill="#6286A8"/>
  <rect x="76" y="112" width="18" height="12" rx="6" fill="#4BA3FF"/>
  <rect x="102" y="112" width="62" height="12" rx="6" fill="#6286A8"/>
  <rect x="76" y="140" width="18" height="12" rx="6" fill="#7ED321"/>
  <rect x="102" y="140" width="72" height="12" rx="6" fill="#6286A8"/>
  <path d="M146 182h36" stroke="#1F3448" stroke-width="10" stroke-linecap="round"/>
  <path d="M166 162l20 20-20 20" fill="none" stroke="#1F3448" stroke-width="10" stroke-linecap="round" stroke-linejoin="round"/>
</svg>
