<svg width="256" height="256" viewBox="8 8 240 240" xmlns="http://www.w3.org/2000/svg" role="img" aria-label="Pasuta icon idea clipboard code">
  <defs>
    <linearGradient id="bg" x1="10" y1="10" x2="246" y2="246" gradientUnits="userSpaceOnUse">
      <stop offset="0" stop-color="#203246"/>
      <stop offset="1" stop-color="#0B141D"/>
    </linearGradient>
    <linearGradient id="paper" x1="48" y1="40" x2="208" y2="226" gradientUnits="userSpaceOnUse">
      <stop offset="0" stop-color="#ECF4FB"/>
      <stop offset="1" stop-color="#D8E7F5"/>
    </linearGradient>
  </defs>
  <rect x="8" y="8" width="240" height="240" rx="44" fill="url(#bg)"/>
  <rect x="78" y="18" width="100" height="34" rx="17" fill="#BFD6EC"/>
  <rect x="40" y="42" width="176" height="190" rx="26" fill="url(#paper)" stroke="#91B3D2" stroke-width="6"/>
  <rect x="58" y="76" width="22" height="14" rx="7" fill="#F5A623"/>
  <rect x="90" y="76" width="100" height="14" rx="7" fill="#6286A8"/>
  <rect x="58" y="108" width="22" height="14" rx="7" fill="#4BA3FF"/>
  <rect x="90" y="108" width="82" height="14" rx="7" fill="#6286A8"/>
  <rect x="58" y="140" width="22" height="14" rx="7" fill="#7ED321"/>
  <rect x="90" y="140" width="92" height="14" rx="7" fill="#6286A8"/>
  <path d="M136 188h44" stroke="#1F3448" stroke-width="12" stroke-linecap="round"/>
  <path d="M160 164l24 24-24 24" fill="none" stroke="#1F3448" stroke-width="12" stroke-linecap="round" stroke-linejoin="round"/>
</svg>
