<svg width="256" height="256" viewBox="8 8 240 240" xmlns="http://www.w3.org/2000/svg" role="img" aria-label="Pasuta icon idea paper to image or text conversion">
  <defs>
    <linearGradient id="bg" x1="10" y1="10" x2="246" y2="246" gradientUnits="userSpaceOnUse">
      <stop offset="0" stop-color="#203246"/>
      <stop offset="1" stop-color="#0B141D"/>
    </linearGradient>
    <linearGradient id="paper" x1="48" y1="40" x2="208" y2="226" gradientUnits="userSpaceOnUse">
      <stop offset="0" stop-color="#ECF4FB"/>
      <stop offset="1" stop-color="#D8E7F5"/>
    </linearGradient>
  </defs>
  <rect x="44" y="16" width="168" height="92" rx="22" fill="url(#paper)" stroke="#91B3D2" stroke-width="6"/>
  <rect x="76" y="26" width="92" height="16" rx="8" fill="#F5A623"/>
  <rect x="76" y="52" width="72" height="16" rx="8" fill="#4BA3FF"/>
  <rect x="76" y="78" width="104" height="16" rx="8" fill="#7ED321"/>

  <rect x="12" y="124" width="112" height="120" rx="14" fill="url(#paper)" stroke="#91B3D2" stroke-width="4"/>
  <rect x="132" y="124" width="112" height="120" rx="14" fill="url(#paper)" stroke="#91B3D2" stroke-width="4"/>
  <text x="68" y="228" text-anchor="middle" font-family="Arial, Helvetica, sans-serif" font-size="56" font-weight="700" fill="#1F3448">IMG</text>
  <text x="187" y="228" text-anchor="middle" font-family="Arial, Helvetica, sans-serif" font-size="56" font-weight="700" fill="#1F3448">TXT</text>

  <path d="M68 106 L68 168" fill="none" stroke="#91B3D2" stroke-width="24" stroke-linecap="butt" stroke-linejoin="round"/>
  <path d="M68 168 L52 150" fill="none" stroke="#91B3D2" stroke-width="24" stroke-linecap="round"/>
  <path d="M68 168 L84 150" fill="none" stroke="#91B3D2" stroke-width="24" stroke-linecap="round"/>

  <path d="M188 106 L188 168" fill="none" stroke="#91B3D2" stroke-width="24" stroke-linecap="butt" stroke-linejoin="round"/>
  <path d="M188 168 L172 150" fill="none" stroke="#91B3D2" stroke-width="24" stroke-linecap="round"/>
  <path d="M188 168 L204 150" fill="none" stroke="#91B3D2" stroke-width="24" stroke-linecap="round"/>

  <path d="M68 116 L68 168" fill="none" stroke="#1F3448" stroke-width="12" stroke-linecap="round" stroke-linejoin="round"/>
  <path d="M68 168 L52 150" fill="none" stroke="#1F3448" stroke-width="12" stroke-linecap="round"/>
  <path d="M68 168 L84 150" fill="none" stroke="#1F3448" stroke-width="12" stroke-linecap="round"/>

  <path d="M188 116 L188 168" fill="none" stroke="#1F3448" stroke-width="12" stroke-linecap="round" stroke-linejoin="round"/>
  <path d="M188 168 L172 150" fill="none" stroke="#1F3448" stroke-width="12" stroke-linecap="round"/>
  <path d="M188 168 L204 150" fill="none" stroke="#1F3448" stroke-width="12" stroke-linecap="round"/>
</svg>
